<svg id="Layer_1" data-name="Layer 1" xmlns="http://www.w3.org/2000/svg" xmlns:xlink="http://www.w3.org/1999/xlink" viewBox="0 0 60 60"><defs><clipPath id="clip-path"><rect x="10.14" y="2.5" width="39.71" height="55" style="fill:none"/></clipPath></defs><g style="clip-path:url(#clip-path)"><path d="M39.15,27.89,29,38.05a.67.67,0,0,1-.5.21.71.71,0,0,1-.51-.21L23.44,33.5a.72.72,0,0,1,0-1l2-2a.71.71,0,0,1,1,0l2,2,7.61-7.62a.71.71,0,0,1,1,0l2,2a.71.71,0,0,1,0,1m10.7,2.85-.17-15.87A44,44,0,0,1,31.1,5.4l0,0a44,44,0,0,1-18.32,9.84l.17,15.87C13,38.41,16,44.94,21.82,50.54a40.91,40.91,0,0,0,9.58,6.82l.28.14a41.61,41.61,0,0,0,9.7-7.17c5.71-5.74,8.56-12.33,8.47-19.59" style="fill:#f5a800"/><path d="M37.58,26.33,27.42,36.49a.7.7,0,0,1-1,0l-4.55-4.55a.72.72,0,0,1,0-1l2-2a.7.7,0,0,1,1,0l2,2,7.62-7.63a.72.72,0,0,1,1,0l2,2A.71.71,0,0,1,37.58,26.33ZM48.3,29.18l-.18-15.87a43.93,43.93,0,0,1-18.6-9.47l-.05,0a44,44,0,0,1-18.34,9.84l.17,15.87c.08,7.27,3.08,13.79,8.92,19.4a41.13,41.13,0,0,0,9.6,6.81l.28.14a41.31,41.31,0,0,0,9.71-7.17C45.53,43,48.38,36.45,48.3,29.18Z" style="fill:none;stroke:#0a2240;stroke-miterlimit:10;stroke-width:1.9465994239610178px"/></g></svg>