<svg id="Layer_1" data-name="Layer 1" xmlns="http://www.w3.org/2000/svg" xmlns:xlink="http://www.w3.org/1999/xlink" viewBox="0 0 60 60"><defs><clipPath id="clip-path"><rect x="10.95" width="39.12" height="60" style="fill:none"/></clipPath></defs><g style="clip-path:url(#clip-path)"><path d="M46.3,33h0a3.58,3.58,0,0,0-1.72.44l-.1,0A3.84,3.84,0,0,0,40.72,30h0a3.64,3.64,0,0,0-1.83.5,3.84,3.84,0,0,0-3.74-3.45h0a3.56,3.56,0,0,0-1.76.47V17.67a4.38,4.38,0,0,0-4.26-4.49h0a4.38,4.38,0,0,0-4.26,4.49V37.06l-2.28-3.55a4.21,4.21,0,0,0-2.73-1.88,4,4,0,0,0-3.19.69h0a4.47,4.47,0,0,0-1.8,2.87,4.68,4.68,0,0,0,.65,3.35c.11.2.55,1,.69,1.16l8.45,12.87a22.75,22.75,0,0,0,1.89,2.77h0a13.24,13.24,0,0,0,10,4.65,16,16,0,0,0,4-.45c5.27-1.18,9.27-6.23,9.57-12a1.5,1.5,0,0,0,0-.2V37a3.88,3.88,0,0,0-3.77-4" style="fill:#f5a800"/><path d="M36.32,16.24a1,1,0,0,0,1,1h3.86a1,1,0,0,0,0-2.09H37.31a1,1,0,0,0-1,1" style="fill:#f5a800"/><path d="M35.33,11a1,1,0,0,0,.7-.31l2.73-2.87a1.1,1.1,0,0,0,0-1.48,1,1,0,0,0-1.4,0L34.63,9.18a1.07,1.07,0,0,0,0,1.47.93.93,0,0,0,.7.31" style="fill:#f5a800"/><path d="M29.68,8a1,1,0,0,0,1-1V2.85a1,1,0,1,0-2,0V6.92a1,1,0,0,0,1,1" style="fill:#f5a800"/><path d="M23,9.74a.93.93,0,0,0,.7.31,1,1,0,0,0,.7-.31,1.09,1.09,0,0,0,0-1.47L21.66,5.39a1,1,0,0,0-1.4,0,1.08,1.08,0,0,0,0,1.48Z" style="fill:#f5a800"/><path d="M17,16h3.86a1,1,0,0,0,0-2.08H17A1,1,0,0,0,17,16" style="fill:#f5a800"/><path d="M46.43,45.62s0,.07,0,.1a11.24,11.24,0,0,1-8.69,10.53h0a15.88,15.88,0,0,1-3.78.39,12.48,12.48,0,0,1-9.2-4.06l0,0a24.18,24.18,0,0,1-1.74-2.46.56.56,0,0,1-.05-.08l-9-13c-.1-.13-.48-.74-.69-1.1l0,0a2.63,2.63,0,0,1,.7-3.63h0a2.58,2.58,0,0,1,2-.4,2.61,2.61,0,0,1,1.67,1.09l3.83,5.66.51.77a.87.87,0,0,0,1.6-.48v-23A2.62,2.62,0,0,1,26,13.22h0a2.62,2.62,0,0,1,2.61,2.62v17a.88.88,0,0,0,1.75,0V29a2.09,2.09,0,0,1,2.05-1.73h0a2.1,2.1,0,0,1,2.09,2.09v.25a.31.31,0,0,0,0,.1v5a.88.88,0,0,0,1.75,0V32l.16-.41a1.79,1.79,0,0,1,.24-.46,2.09,2.09,0,0,1,1.69-.87h0a2.09,2.09,0,0,1,2.09,2.09v4.36a.88.88,0,0,0,1.75,0V34.89l.29-.54a2.08,2.08,0,0,1,.84-.87,2.11,2.11,0,0,1,1-.23h0a2.09,2.09,0,0,1,2.09,2.09ZM44.34,31.5h0a3.81,3.81,0,0,0-2.09.63,3.84,3.84,0,0,0-3.83-3.66h0a3.83,3.83,0,0,0-2.09.63,3.83,3.83,0,0,0-3.83-3.6h0a3.79,3.79,0,0,0-2.05.6V15.84a4.36,4.36,0,0,0-4.36-4.36h0a4.36,4.36,0,0,0-4.35,4.36V36l-2.76-4.07a4.34,4.34,0,0,0-6-1.15h0a4.35,4.35,0,0,0-1.17,6c.12.19.59,1,.73,1.17l9,13a23.38,23.38,0,0,0,2,2.77h0A14.24,14.24,0,0,0,33.89,58.4,18.3,18.3,0,0,0,38.11,58a13,13,0,0,0,10-12,1.1,1.1,0,0,0,0-.18V35.34a3.84,3.84,0,0,0-3.83-3.84" style="fill:#0a2240"/><path d="M33.9,14.39a.87.87,0,0,0,.87.87h4.11a.88.88,0,0,0,0-1.75H34.77a.88.88,0,0,0-.87.88" style="fill:#0a2240"/><path d="M32.67,8.88a.87.87,0,0,0,.61-.26l2.91-2.9A.88.88,0,1,0,35,4.48l-2.9,2.91a.88.88,0,0,0,.62,1.49" style="fill:#0a2240"/><path d="M26.66,5.85A.87.87,0,0,0,27.54,5V.87a.88.88,0,0,0-1.75,0V5a.87.87,0,0,0,.87.87" style="fill:#0a2240"/><path d="M19.67,7.7A.87.87,0,1,0,20.9,6.47L18,3.56a.87.87,0,0,0-1.23,0,.88.88,0,0,0,0,1.24Z" style="fill:#0a2240"/><path d="M13.15,14h4.11a.87.87,0,1,0,0-1.74H13.15a.87.87,0,0,0,0,1.74" style="fill:#0a2240"/></g></svg>