<svg id="Layer_1" data-name="Layer 1" xmlns="http://www.w3.org/2000/svg" xmlns:xlink="http://www.w3.org/1999/xlink" viewBox="0 0 60 60"><defs><clipPath id="clip-path"><rect x="8.53" y="2.5" width="42.93" height="55" style="fill:none"/></clipPath></defs><g style="clip-path:url(#clip-path)"><path d="M33.32,41.21l.06,8.36a2,2,0,0,1-4.07,0l-.06-8.33a5,5,0,1,1,4.07,0m18-15.71-40.17.26.19,29.41c0,3.28,40.2,3,40.18-.26Z" style="fill:#f5a800"/><path d="M18.67,23.61l0-2a12.51,12.51,0,0,1,25-.16v2l4.07,0v-2a16.58,16.58,0,0,0-33.15.22l0,2Z" style="fill:#f5a800"/><path d="M31.75,39.64,31.81,48a2,2,0,0,1-4.07,0l-.06-8.33a5,5,0,1,1,4.07,0Zm18-15.72-40.18.27.2,29.41c0,3.27,40.2,3,40.17-.26Z" style="fill:none;stroke:#0a2240;stroke-miterlimit:10;stroke-width:1.9655211487322934px"/><path d="M17.1,22l0-2a12.51,12.51,0,0,1,25-.16v2l4.07,0,0-2A16.57,16.57,0,0,0,13,20.08l0,2Z" style="fill:none;stroke:#0a2240;stroke-miterlimit:10;stroke-width:1.9655211487322934px"/></g></svg>