<svg id="Layer_1" data-name="Layer 1" xmlns="http://www.w3.org/2000/svg" xmlns:xlink="http://www.w3.org/1999/xlink" viewBox="0 0 60 60"><defs><clipPath id="clip-path"><rect y="3.28" width="60" height="53.43" style="fill:none"/></clipPath></defs><g style="clip-path:url(#clip-path)"><path d="M60,47.53c-.47-6.81-5.61-13.13-12.74-15.91a19.57,19.57,0,0,0,4.18-12c0-8-5.33-14.6-11.89-14.6-4.94,0-9.19,3.72-11,9a9.92,9.92,0,0,0-4.49-1.09c-6.56,0-11.9,6.56-11.9,14.61a19.59,19.59,0,0,0,4.18,12.05C9.24,42.31,4.1,48.63,3.63,55.45a1.23,1.23,0,0,0,.29.89,1.1,1.1,0,0,0,.82.38H43.42a1.08,1.08,0,0,0,.81-.38,1.24,1.24,0,0,0,.3-.89,16.16,16.16,0,0,0-2-6.65H58.88a1.08,1.08,0,0,0,.82-.38,1.24,1.24,0,0,0,.3-.89" style="fill:#f5a800"/><path d="M38.88,45.68l1.56,1-1-1.26a22.18,22.18,0,0,0-9.69-6.86L29,38.33l.54-.62a18.63,18.63,0,0,0,4.37-11.92,15,15,0,0,0-5.65-12l-.32-.24.12-.38A13,13,0,0,1,32,7.07a9.71,9.71,0,0,1,6.34-2.41c6.06,0,11,5.86,11,13.06A16.93,16.93,0,0,1,44,30.07a.63.63,0,0,0-.2.62.62.62,0,0,0,.45.47,21.67,21.67,0,0,1,9.35,5.36A16.17,16.17,0,0,1,58.37,45l.12.67Zm2.79,7.41.12.67H1.43l.12-.67a16.23,16.23,0,0,1,4.79-8.5,21.56,21.56,0,0,1,9.35-5.35.63.63,0,0,0,.45-.47.65.65,0,0,0-.2-.62,16.9,16.9,0,0,1-5.32-12.36c0-7.19,4.93-13,11-13s11,5.86,11,13.05a17,17,0,0,1-5.32,12.36.63.63,0,0,0-.21.62.65.65,0,0,0,.45.47,21.59,21.59,0,0,1,9.36,5.35,16.21,16.21,0,0,1,4.78,8.5m4.77-22.55-.77-.28.54-.62a18.7,18.7,0,0,0,4.36-11.92c0-7.9-5.5-14.33-12.26-14.33-5,0-9.39,3.46-11.32,8.81l-.21.59-.56-.27a10.72,10.72,0,0,0-4.61-1.06c-6.76,0-12.27,6.43-12.27,14.33a18.69,18.69,0,0,0,4.37,11.92l.54.62-.77.28C6,41.38.6,47.7.11,54.35a.66.66,0,0,0,.17.48.63.63,0,0,0,.46.2H42.48a.63.63,0,0,0,.47-.2.61.61,0,0,0,.16-.48A15.28,15.28,0,0,0,41,47.81L40.54,47H59.17a.65.65,0,0,0,.64-.69h0c-.49-6.64-5.86-13-13.37-15.73" style="fill:#0a2240"/><path d="M38.88,45.68l1.56,1-1-1.26a22.18,22.18,0,0,0-9.69-6.86L29,38.33l.54-.62a18.63,18.63,0,0,0,4.37-11.92,15,15,0,0,0-5.65-12l-.32-.24.12-.38A13,13,0,0,1,32,7.07a9.71,9.71,0,0,1,6.34-2.41c6.06,0,11,5.86,11,13.06A16.93,16.93,0,0,1,44,30.07a.63.63,0,0,0-.2.62.62.62,0,0,0,.45.47,21.67,21.67,0,0,1,9.35,5.36A16.17,16.17,0,0,1,58.37,45l.12.67Zm2.79,7.41.12.67H1.43l.12-.67a16.23,16.23,0,0,1,4.79-8.5,21.56,21.56,0,0,1,9.35-5.35.63.63,0,0,0,.45-.47.65.65,0,0,0-.2-.62,16.9,16.9,0,0,1-5.32-12.36c0-7.19,4.93-13,11-13s11,5.86,11,13.05a17,17,0,0,1-5.32,12.36.63.63,0,0,0-.21.62.65.65,0,0,0,.45.47,21.59,21.59,0,0,1,9.36,5.35A16.21,16.21,0,0,1,41.67,53.09Zm4.77-22.55-.77-.28.54-.62a18.7,18.7,0,0,0,4.36-11.92c0-7.9-5.5-14.33-12.26-14.33-5,0-9.39,3.46-11.32,8.81l-.21.59-.56-.27a10.72,10.72,0,0,0-4.61-1.06c-6.76,0-12.27,6.43-12.27,14.33a18.69,18.69,0,0,0,4.37,11.92l.54.62-.77.28C6,41.38.6,47.7.11,54.35a.66.66,0,0,0,.17.48.63.63,0,0,0,.46.2H42.48a.63.63,0,0,0,.47-.2.61.61,0,0,0,.16-.48A15.28,15.28,0,0,0,41,47.81L40.54,47H59.17a.65.65,0,0,0,.64-.69h0C59.32,39.63,54,33.3,46.44,30.54Z" style="fill:none;stroke:#0a2240;stroke-miterlimit:10;stroke-width:0.214093019740836px"/></g></svg>