<svg id="Layer_1" data-name="Layer 1" xmlns="http://www.w3.org/2000/svg" xmlns:xlink="http://www.w3.org/1999/xlink" viewBox="0 0 60 60"><defs><clipPath id="clip-path"><rect x="2.5" y="6.04" width="55" height="47.92" style="fill:none"/></clipPath></defs><g style="clip-path:url(#clip-path)"><path d="M42,37.37H35v7.06H28V37.37H21V30.3h7V23.24h7V30.3h7ZM54.4,13.71h-26S22.67,8.79,21,8.79H8.57a3.11,3.11,0,0,0-3.1,3.14V50.82A3.11,3.11,0,0,0,8.57,54H54.4a3.11,3.11,0,0,0,3.1-3.14v-34a3.11,3.11,0,0,0-3.1-3.14" style="fill:#f5a800"/><path d="M39.75,35.09H32.83V42H25.9V35.09H19V28.17H25.9V21.24h6.93v6.93h6.92ZM52.12,11.9H26.29s-5.68-4.82-7.38-4.82H6.61a3.07,3.07,0,0,0-3.08,3.07V48.28a3.07,3.07,0,0,0,3.08,3.08H52.12a3.07,3.07,0,0,0,3.08-3.08V15A3.07,3.07,0,0,0,52.12,11.9Z" style="fill:none;stroke:#0a2240;stroke-miterlimit:10;stroke-width:2.06748273560595px"/></g></svg>