<svg id="Layer_1" data-name="Layer 1" xmlns="http://www.w3.org/2000/svg" xmlns:xlink="http://www.w3.org/1999/xlink" viewBox="0 0 60 60"><defs><clipPath id="clip-path"><rect x="7.98" y="2.5" width="48.05" height="55" style="fill:none"/></clipPath></defs><g style="clip-path:url(#clip-path)"><path d="M55,45.32l-8.76-7.88-1.37,1.71-1-.86.23-.33A16.18,16.18,0,0,0,47,27.37a15.9,15.9,0,0,0-5.22-10.72l0,0V10.08A5.73,5.73,0,0,0,36.19,4.2H17.05a5.73,5.73,0,0,0-5.55,5.88V51.62a5.73,5.73,0,0,0,5.55,5.88H36.19a5.73,5.73,0,0,0,5.55-5.88V40.69l.26-.23v0c.34-.32.66-.65,1-1l1,.87-1.36,1.7,8.76,7.88a2.74,2.74,0,0,0,4-.35A3.16,3.16,0,0,0,55,45.32" style="fill:#f5a800"/></g><path d="M34.62,20.93h2.09V23H34.62Zm-1.43,3.54h5v-5h-5Z" style="fill:#0a2240"/><polygon points="36.96 28.87 36.96 27.44 35.15 27.44 35.15 25.83 31.32 25.83 31.32 27.26 33.71 27.26 33.71 28.87 36.96 28.87" style="fill:#0a2240"/><polygon points="31.45 31.16 28.74 31.16 28.74 34.58 30.18 34.58 30.18 32.59 32.88 32.59 32.88 29.69 31.45 29.69 31.45 31.16" style="fill:#0a2240"/><polygon points="36.63 32.84 34.7 32.84 34.7 34.27 38.06 34.27 38.06 31.08 36.63 31.08 36.63 32.84" style="fill:#0a2240"/><g style="clip-path:url(#clip-path)"><path d="M24.51,51.65a1.89,1.89,0,1,0-1.89-1.89,1.89,1.89,0,0,0,1.89,1.89" style="fill:#0a2240"/></g><path d="M25.66,23H23.57V20.93h2.09Zm1.43-3.54H22.14v5h4.95Z" style="fill:#0a2240"/><path d="M23.57,30.7h2.09v2.11H23.57Zm-1.43,3.54h4.95v-5H22.14Z" style="fill:#0a2240"/><polygon points="26.32 27.49 29.91 27.49 29.91 23.46 31.75 23.46 31.75 19.41 30.32 19.41 30.32 22.03 28.48 22.03 28.48 26.06 26.32 26.06 26.32 27.49" style="fill:#0a2240"/><rect x="21.99" y="26.03" width="1.67" height="1.43" style="fill:#0a2240"/><g style="clip-path:url(#clip-path)"><path d="M53.2,46.87a1.46,1.46,0,0,1-2,.17l-5.52-4.69,1.88-2.2,5.51,4.68a1.44,1.44,0,0,1,.13,2M43.12,40.18,45,38l1.36,1.15-1.87,2.21Zm-2.5-4.12c-.19.22-.39.44-.59.65a14.26,14.26,0,0,1-19.39,1A14,14,0,0,1,19,17.86a14.23,14.23,0,0,1,19.15-2.28c.28.2.56.42.83.65s.7.62,1,.95a14,14,0,0,1,.59,18.88m-2.45,8.48H9.83V9.37H38.17v4.19a16,16,0,0,0-20.42,3.21A15.74,15.74,0,0,0,31.1,42.65a15.82,15.82,0,0,0,7.07-2.31Zm0,5.38a4,4,0,0,1-4,4H13.86a4,4,0,0,1-4-4V46.25H38.17ZM13.86,4.36H34.15a4,4,0,0,1,4,3.3H9.9a4,4,0,0,1,4-3.3M54.1,43.62l-9.29-7.88-1.45,1.71-1-.86.24-.33A15.67,15.67,0,0,0,40.08,15l0,0V8.38A5.89,5.89,0,0,0,34.15,2.5H13.86A5.88,5.88,0,0,0,8,8.38V49.92a5.88,5.88,0,0,0,5.88,5.88H34.15A5.89,5.89,0,0,0,40,49.92V39l.27-.23v0c.36-.32.7-.65,1-1l1,.87-1.45,1.7,9.29,7.88a3,3,0,1,0,3.92-4.62" style="fill:#0a2240"/></g></svg>