<svg id="Layer_1" data-name="Layer 1" xmlns="http://www.w3.org/2000/svg" xmlns:xlink="http://www.w3.org/1999/xlink" viewBox="0 0 60 60"><defs><clipPath id="clip-path"><rect x="8.81" y="2.5" width="42.38" height="55" style="fill:none"/></clipPath></defs><g style="clip-path:url(#clip-path)"><path d="M49.85,13.83a2.89,2.89,0,0,0,.89-4,2.91,2.91,0,0,0-1.81-1.27A2.87,2.87,0,0,0,46.75,9l-.17.1V7.36a4.22,4.22,0,0,0-4.22-4.22H26a4.23,4.23,0,0,0-4.22,4.22v5.7C20.21,12,17.75,13,17.73,15.61c-.07,7.15-5.14,12.62-3.9,16.75.44,1.44,1.84,5.44,1.84,7.57l-4.82,4.29a.68.68,0,0,0-.06,1,.67.67,0,0,0,1,.06l4.38-3.89h.14L28.48,54.54l-1.94,1.79a.67.67,0,0,0,0,1,.64.64,0,0,0,.49.22.69.69,0,0,0,.46-.18l2.43-2.25a.67.67,0,0,0,0-1L17,40.19c.08-2-1-5.27-1.6-7.29L15.12,32c-1-3.4,3.88-9.07,4-16.34,0-2,2.41-2.39,2.74,0V40.59A4.23,4.23,0,0,0,26,44.81h13.2c-1.82,2.72-4.47,3.81-6.62,4.7a13.38,13.38,0,0,0-2.81,1.39.67.67,0,0,0-.15.94.67.67,0,0,0,.94.15,12.8,12.8,0,0,1,2.54-1.24c2.44-1,5.48-2.26,7.53-5.68a.62.62,0,0,0,.09-.26h1.6a4.23,4.23,0,0,0,4.22-4.22V34.52a2.89,2.89,0,0,0,2.25-.86,2.78,2.78,0,0,0-1.29-4.59l.68-.21a2.82,2.82,0,0,0-.06-5.41l1.45-.92a2.84,2.84,0,0,0-3-4.81V15.91Z" style="fill:#f5a800"/><path d="M14.6,45.45a1.16,1.16,0,0,0,1.2,2,1.16,1.16,0,0,0-1.2-2" style="fill:#f5a800"/><path d="M25.94,30.62H23.79V28.46a.67.67,0,0,0-1.34,0v2.83a.68.68,0,0,0,.67.67h2.82a.67.67,0,0,0,0-1.34" style="fill:#0a2240"/><path d="M41.17,12.56H38.63a.67.67,0,0,0,0,1.34H40.5v1.94a.67.67,0,0,0,1.34,0V13.23a.67.67,0,0,0-.67-.67" style="fill:#0a2240"/><path d="M23.79,16V13.9H25.9a.67.67,0,0,0,0-1.34H23.12a.67.67,0,0,0-.67.67V16a.67.67,0,0,0,1.34,0" style="fill:#0a2240"/><path d="M32.62,37.83a1.49,1.49,0,1,0,1.48,1.48,1.49,1.49,0,0,0-1.48-1.48" style="fill:#0a2240"/><path d="M46.4,18a1.48,1.48,0,0,1,.47,2.7c-2.48,1.58-2.71,1.87-3.48,1.7a1.48,1.48,0,0,1-1.13-1.77c.17-.78.53-.86,3-2.44A1.46,1.46,0,0,1,46.4,18m-.59,8.85c-2.84.9-3.13,1.12-3.83.75a1.46,1.46,0,0,1-.62-2c.36-.69.7-.67,3.56-1.57a1.47,1.47,0,0,1,.89,2.8m.42,4.12a1.41,1.41,0,0,1-1.37,1.44l-1,0a1.41,1.41,0,0,1-1-2.38c.5-.52,1-.43,2-.46a1.4,1.4,0,0,1,1,.4,1.36,1.36,0,0,1,.43,1M40.38,42.6H24.15a2.86,2.86,0,0,1-2.86-2.86V36.57H43.23v3.17a2.86,2.86,0,0,1-2.85,2.86M24.15,3.84H40.38a2.86,2.86,0,0,1,2.84,2.59H21.3a2.87,2.87,0,0,1,2.85-2.59m18,14.67a2.83,2.83,0,0,0,.19,4.88l-.57.18A2.81,2.81,0,0,0,41.92,29a2.79,2.79,0,0,0-.86,1.65H38.67a.67.67,0,0,0,0,1.34h2.55a2.79,2.79,0,0,0,2,1.72v1.56H21.29V7.77H43.23V9.6c0,2.93,0,4.31,0,5v3.25Zm3.27-9.1a1.5,1.5,0,0,1,1.15-.2A1.52,1.52,0,0,1,47.78,11a1.52,1.52,0,0,1-.68,1l-2.53,1.61V10Zm2.36,3.72a2.86,2.86,0,0,0,1.27-1.8A2.87,2.87,0,0,0,46.91,7.9a2.85,2.85,0,0,0-2.17.38l-.17.1V6.7a4.2,4.2,0,0,0-4.19-4.2H24.15A4.2,4.2,0,0,0,20,6.7v5.67c-1.6-1.08-4,0-4.07,2.54C15.81,22,10.77,27.45,12,31.56c.43,1.44,1.82,5.41,1.83,7.53L9,43.36A.67.67,0,0,0,9,44.3a.68.68,0,0,0,.95.06l4.35-3.87h.14L26.57,53.62,24.65,55.4a.67.67,0,0,0,.45,1.16.66.66,0,0,0,.46-.17L28,54.15a.68.68,0,0,0,0-.95L15.17,39.35c.07-2-.95-5.25-1.59-7.25-.12-.36-.22-.67-.29-.92-1-3.39,3.86-9,3.93-16.26,0-2,2.4-2.37,2.73,0V39.74a4.2,4.2,0,0,0,4.2,4.2H37.28c-1.81,2.71-4.45,3.79-6.59,4.67A14.61,14.61,0,0,0,27.89,50a.67.67,0,0,0-.15.93.68.68,0,0,0,.55.28.65.65,0,0,0,.39-.13,13.47,13.47,0,0,1,2.52-1.23c2.43-1,5.46-2.24,7.5-5.65a.62.62,0,0,0,.09-.26h1.59a4.2,4.2,0,0,0,4.19-4.2v-6a2.86,2.86,0,0,0,2.24-.86,2.76,2.76,0,0,0-1.28-4.56l.68-.21a2.81,2.81,0,0,0-.06-5.38l1.44-.91a2.83,2.83,0,0,0-3-4.79V15.2Z" style="fill:#0a2240"/><path d="M13.32,44.35a1.14,1.14,0,0,0,1.17,1.95,1.14,1.14,0,0,0-1.17-1.95" style="fill:#0a2240"/></g><path d="M27,17.14h1.79V19H27Zm-1.23,3H30V15.92H25.77Z" style="fill:#0a2240"/><path d="M27,25.53h1.79v1.8H27Zm-1.23,3H30V24.3H25.77Z" style="fill:#0a2240"/><path d="M36.48,17.14h1.79V19H36.48Zm-1.23,3H39.5V15.92H35.25Z" style="fill:#0a2240"/><polygon points="29.36 22.77 32.44 22.77 32.44 19.32 34.02 19.32 34.02 15.84 32.79 15.84 32.79 18.09 31.21 18.09 31.21 21.55 29.36 21.55 29.36 22.77" style="fill:#0a2240"/><polygon points="38.49 23.96 38.49 22.73 36.93 22.73 36.93 21.35 33.65 21.35 33.65 22.58 35.7 22.58 35.7 23.96 38.49 23.96" style="fill:#0a2240"/><polygon points="33.76 25.92 31.43 25.92 31.43 28.85 32.66 28.85 32.66 27.15 34.98 27.15 34.98 24.66 33.76 24.66 33.76 25.92" style="fill:#0a2240"/><polygon points="38.2 27.36 36.54 27.36 36.54 28.59 39.43 28.59 39.43 25.85 38.2 25.85 38.2 27.36" style="fill:#0a2240"/><rect x="25.64" y="21.52" width="1.43" height="1.23" style="fill:#0a2240"/></svg>