<svg id="Layer_1" data-name="Layer 1" xmlns="http://www.w3.org/2000/svg" xmlns:xlink="http://www.w3.org/1999/xlink" viewBox="0 0 60 60"><defs><clipPath id="clip-path"><rect x="2.35" y="2.5" width="55.29" height="55" style="fill:none"/></clipPath></defs><g style="clip-path:url(#clip-path)"><path d="M31.59,40.65a9.21,9.21,0,1,1,9.2-9.21,9.21,9.21,0,0,1-9.2,9.21M57.65,37V25.84H50.8a19.56,19.56,0,0,0-1.67-4L54,17,46.05,9.06l-4.84,4.83a19.33,19.33,0,0,0-4-1.67V5.38H26v6.84a19.64,19.64,0,0,0-4,1.67L17.12,9.06,9.2,17,14,21.81a19.56,19.56,0,0,0-1.67,4H5.52V37h6.85a19.56,19.56,0,0,0,1.67,4L9.2,45.91l7.92,7.92L22,49a19.36,19.36,0,0,0,4,1.68V57.5H37.18V50.66a19.64,19.64,0,0,0,4-1.67l4.83,4.84L54,45.91l-4.84-4.84a20.4,20.4,0,0,0,1.68-4Z" style="fill:#f5a800"/><path d="M29.44,38.79a9.21,9.21,0,1,1,9.21-9.21A9.2,9.2,0,0,1,29.44,38.79Zm26.06-3.6V24H48.66A19.33,19.33,0,0,0,47,20l4.84-4.84L43.91,7.2,39.07,12a19.05,19.05,0,0,0-4-1.68V3.53H23.85v6.83a19.13,19.13,0,0,0-4,1.68L15,7.2,7.06,15.12,11.9,20a19.33,19.33,0,0,0-1.67,4H3.38v11.2h6.85a19.47,19.47,0,0,0,1.67,4L7.06,44.05,15,52l4.83-4.83a20.24,20.24,0,0,0,4,1.68v6.83H35V48.81a19.33,19.33,0,0,0,4-1.67L43.91,52l7.92-7.92L47,39.21a19.94,19.94,0,0,0,1.67-4Z" style="fill:none;stroke:#0a2240;stroke-miterlimit:10;stroke-width:2.052422504036623px"/></g></svg>